<svg id="Layer_1" data-name="Layer 1" xmlns="http://www.w3.org/2000/svg" viewBox="0 0 699.5 1178.32"><defs><style>.cls-1{fill:#7c3aed;}</style></defs><title>Final Logo</title><path class="cls-1" d="M669.72,1330.92c-1.16.44-2.29.92-3.37,1.44A36.3,36.3,0,0,1,669.72,1330.92Z" transform="translate(-650.25 -397.42)"/><path class="cls-1" d="M712.83,1559.59l6,1.14C716.81,1560.35,714.8,1560,712.83,1559.59Z" transform="translate(-650.25 -397.42)"/><path class="cls-1" d="M724,1328.26l3.62.27Z" transform="translate(-650.25 -397.42)"/><path class="cls-1" d="M731.08,1328.76c1.47.09,2.87.17,4.18.22C733.94,1328.93,732.55,1328.85,731.08,1328.76Z" transform="translate(-650.25 -397.42)"/><path class="cls-1" d="M762.92,1329l-6.09.06Z" transform="translate(-650.25 -397.42)"/><path class="cls-1" d="M766.11,1329c3.13-.06,6.31-.12,9.52-.2C772.42,1328.83,769.24,1328.9,766.11,1329Z" transform="translate(-650.25 -397.42)"/><path class="cls-1" d="M804.28,1327.63l-5.6.28Z" transform="translate(-650.25 -397.42)"/><path class="cls-1" d="M836.33,1325.28c-6.58.63-13.27,1.17-20,1.62C823.06,1326.44,829.75,1325.9,836.33,1325.28Z" transform="translate(-650.25 -397.42)"/><path class="cls-1" d="M873,1320.52c2.57-.45,5.08-.91,7.55-1.4C878.08,1319.61,875.56,1320.07,873,1320.52Z" transform="translate(-650.25 -397.42)"/><path class="cls-1" d="M1067.21,1157.11q.9-3.39,1.71-6.79Q1068.13,1153.72,1067.21,1157.11Z" transform="translate(-650.25 -397.42)"/><path class="cls-1" d="M1071.3,1138.91q-.63,3.43-1.36,6.85C1070.42,1143.48,1070.88,1141.2,1071.3,1138.91Z" transform="translate(-650.25 -397.42)"/><path class="cls-1" d="M1074.72,1113.26c.28-3.14.51-6.31.71-9.5Q1075.15,1108.55,1074.72,1113.26Z" transform="translate(-650.25 -397.42)"/><path class="cls-1" d="M1076.26,1074.17c0-13.57-.4-27.75-.92-42.77C1075.86,1046.42,1076.26,1060.6,1076.26,1074.17Z" transform="translate(-650.25 -397.42)"/><path class="cls-1" d="M1069.94,1145.76q.74-3.42,1.36-6.85C1070.88,1141.2,1070.42,1143.48,1069.94,1145.76ZM816.35,1326.9c6.71-.45,13.4-1,20-1.62C829.75,1325.9,823.06,1326.44,816.35,1326.9Zm-59.52,2.16,6.09-.06Zm-90.48,3.3c1.08-.52,2.21-1,3.37-1.44A36.3,36.3,0,0,0,666.35,1332.36Z" transform="translate(-650.25 -397.42)"/><path class="cls-1" d="M1331.8,1009.19c-2.22-10.9-5.55-23.2-13.43-31.81s-19.79-12.88-36.23-12.88H1138.92c-23.78,0-42.17,6-53.18,17.45-8.46,8.78-12.5,20.31-12,34.29l.08,2.1c3,83.68,5,139-37.36,204-30.09,46.19-83.42,79.75-150.17,94.5-45.74,10.1-112,11.19-138.42,11.19-3.27,0-6.56,0-9.78,0-4,0-9-.41-14.77-.85-7.7-.58-16.42-1.23-25.11-1.23-14.14,0-24.71,1.79-32.33,5.49-9.92,4.82-15,13-15,24.35l-.62,151.18c0,11.83,5.07,23.06,14.65,32.47s22.56,16,37.72,19.21c24.33,5.15,90.06,17.13,174.75,17.13,77.94,0,148.74-10,210.42-29.71,76.92-24.58,137.94-64,181.37-117.17,37.11-45.44,61.68-101.49,73-166.59C1354.77,1189.91,1351.28,1104.76,1331.8,1009.19ZM666.35,1332.36a36.3,36.3,0,0,1,3.37-1.44C668.56,1331.36,667.43,1331.84,666.35,1332.36Zm90.48-3.3,6.09-.06Zm13.87,239.39c2.61.31,5.26.6,7.94.9C776,1569.06,773.32,1568.76,770.7,1568.45Zm45.65-241.55c6.71-.46,13.4-1,20-1.62C829.75,1325.91,823.06,1326.45,816.35,1326.9Zm253.59-181.14c.48-2.28.94-4.56,1.36-6.85Q1070.67,1142.35,1069.94,1145.76Z" transform="translate(-650.25 -397.42)"/><path class="cls-1" d="M1340.2,413.37c.46.54.88,1.08,1.28,1.63C1341.08,414.44,1340.65,413.9,1340.2,413.37Z" transform="translate(-650.25 -397.42)"/><path class="cls-1" d="M1341.48,415c-.4-.55-.82-1.09-1.28-1.63C1340.65,413.9,1341.08,414.44,1341.48,415Z" transform="translate(-650.25 -397.42)"/><path class="cls-1" d="M1349.62,457.65c0-1.9,0-3.86,0-5.76.13-12.8.28-26-6.33-36.22-7.44-11.48-22.63-17.32-46.42-17.84-12.21-.27-24.79-.41-37.39-.41-53,0-102.91,2.43-140.42,6.84A791.69,791.69,0,0,0,1014,423.56a598.47,598.47,0,0,0-100.76,35.52C838.54,493.56,776.59,545,734.08,607.76a450.62,450.62,0,0,0-56.36,117.86c-12.16,38.71-20.26,81.49-24.1,127.15-6.18,73.62-2.11,154,13.22,260.53,2.74,19.09,7.94,31.37,16.85,39.81,8.71,8.24,21.16,12.93,40.39,15.22,37.7,4.49,71.8,6.67,104.25,6.67,8.9,0,17.79-.17,26.42-.51,12.83-.5,26.41-1.39,39-6.27a54.14,54.14,0,0,0,26.88-23.08,75.18,75.18,0,0,0,10.16-34.25c.35-5.74.38-11.73.42-17.52l0-4.43c.1-10.19-.06-20.55-.22-30.57-.31-20.14-.64-41,1.13-61.38,3.16-36.35,7.38-75.11,16.81-112.31,25.88-102,84-176.62,163.52-210,38.89-16.31,84.5-24.58,135.56-24.58,3.59,0,7.26,0,10.9.13s6.91.11,10.14.11c36.66,0,58-5,69.11-16.12,9.64-9.65,11.56-23.29,11.54-42.17ZM1341.48,415c-.4-.56-.83-1.1-1.28-1.63C1340.66,413.91,1341.08,414.45,1341.48,415ZM743.67,1169.34q9.5,1,19,1.73Q753.15,1170.3,743.67,1169.34Zm32.89,2.75q6.15.4,12.31.72C784.76,1172.61,780.66,1172.36,776.56,1172.09Zm42.53,1.7c3.62,0,7.25.07,10.87.06h-1.63C825.25,1173.86,822.17,1173.83,819.09,1173.79Zm-23.12-.64q5.07.21,10.14.36Q801,1173.36,796,1173.15Zm12.88.44c2.95.07,5.9.14,8.85.18Q813.28,1173.71,808.85,1173.59Zm21.53.26q5.57,0,11.13-.12C837.8,1173.81,834.09,1173.84,830.38,1173.85ZM1132.44,666c2.42-.8,4.86-1.58,7.31-2.31C1137.3,664.45,1134.87,665.22,1132.44,666Z" transform="translate(-650.25 -397.42)"/><path class="cls-1" d="M1304.24,811.87V835.2a54.79,54.79,0,0,1-54.72,54.72H1120.28a54.78,54.78,0,0,1-54.71-54.72V811.87a54.77,54.77,0,0,1,54.71-54.71h129.24A54.78,54.78,0,0,1,1304.24,811.87Z" transform="translate(-650.25 -397.42)"/></svg>